<?xml version="1.0" encoding="UTF-8" standalone="no"?>
<!-- Copyright 2017 mathsisfun.com -->

<svg
   width="113.82715"
   height="210.02249"
   version="1.1"
   id="svg72"
   sodipodi:docname="column.svg"
   inkscape:version="1.2.2 (b0a8486541, 2022-12-01)"
   xml:space="preserve"
   xmlns:inkscape="http://www.inkscape.org/namespaces/inkscape"
   xmlns:sodipodi="http://sodipodi.sourceforge.net/DTD/sodipodi-0.dtd"
   xmlns="http://www.w3.org/2000/svg"
   xmlns:svg="http://www.w3.org/2000/svg"><sodipodi:namedview
     id="namedview74"
     pagecolor="#ffffff"
     bordercolor="#000000"
     borderopacity="0.25"
     inkscape:showpageshadow="2"
     inkscape:pageopacity="0.0"
     inkscape:pagecheckerboard="0"
     inkscape:deskcolor="#d1d1d1"
     showgrid="false"
     inkscape:zoom="0.98705106"
     inkscape:cx="-32.419802"
     inkscape:cy="93.71349"
     inkscape:window-width="1280"
     inkscape:window-height="639"
     inkscape:window-x="0"
     inkscape:window-y="0"
     inkscape:window-maximized="1"
     inkscape:current-layer="svg72" /><defs
     id="defs8"><inkscape:path-effect
       effect="bspline"
       id="path-effect2456"
       is_visible="true"
       lpeversion="1"
       weight="33.333333"
       steps="2"
       helper_size="0"
       apply_no_weight="true"
       apply_with_weight="true"
       only_selected="false" /><inkscape:path-effect
       effect="bspline"
       id="path-effect2414"
       is_visible="true"
       lpeversion="1"
       weight="33.333333"
       steps="2"
       helper_size="0"
       apply_no_weight="true"
       apply_with_weight="true"
       only_selected="false" /><inkscape:path-effect
       effect="bspline"
       id="path-effect2384"
       is_visible="true"
       lpeversion="1"
       weight="33.333333"
       steps="2"
       helper_size="0"
       apply_no_weight="true"
       apply_with_weight="true"
       only_selected="false" /><inkscape:path-effect
       effect="spiro"
       id="path-effect1514"
       is_visible="true"
       lpeversion="1" /><inkscape:path-effect
       effect="bspline"
       id="path-effect1498"
       is_visible="true"
       lpeversion="1"
       weight="33.333333"
       steps="2"
       helper_size="0"
       apply_no_weight="true"
       apply_with_weight="true"
       only_selected="false" /><marker
       style="overflow:visible"
       orient="auto"
       id="id01"><path
         d="M 0,0 5,-5 -12.5,0 5,5 Z"
         transform="matrix(-0.4,0,0,-0.4,-4,0)"
         style="fill:#b88100;stroke:#b88100;stroke-width:1pt"
         id="path2" /></marker><marker
       style="overflow:visible"
       orient="auto"
       id="id02"><path
         d="M 0,0 5,-5 -12.5,0 5,5 Z"
         transform="matrix(-0.4,0,0,-0.4,-4,0)"
         style="fill:#b88100;stroke:#b88100;stroke-width:1pt"
         id="path5" /></marker></defs><text
     x="4.1621099"
     y="185.05905"
     style="font-size:18px;font-family:Verdana;fill:#b88100;stroke-width:0.52"
     id="text68">Columns go</text><text
     x="-1.5556641"
     y="206.4014"
     style="font-size:18px;font-family:Verdana;fill:#b88100;stroke-width:0.52"
     id="text678">up and down</text><path
     style="font-variation-settings:normal;opacity:1;fill:none;fill-opacity:1;stroke:#005c94;stroke-width:3.5;stroke-linecap:butt;stroke-linejoin:round;stroke-miterlimit:4;stroke-dasharray:none;stroke-dashoffset:0;stroke-opacity:1;stop-color:#000000;stop-opacity:1"
     d="m 46.831576,14.572624 c 0,0 -1.917241,57.454865 -0.976037,69.976674 1.952089,25.970722 0.976037,65.648232 0.976037,65.648232"
     id="path779"
     sodipodi:nodetypes="csc" /><path
     style="font-variation-settings:normal;opacity:1;fill:none;fill-opacity:1;stroke:#005c94;stroke-width:3.5;stroke-linecap:butt;stroke-linejoin:round;stroke-miterlimit:4;stroke-dasharray:none;stroke-dashoffset:0;stroke-opacity:1;stop-color:#000000;stop-opacity:1"
     d="m 55.127955,15.674701 c 0,0 -1.996329,47.417474 -0.732023,59.87696 1.464052,14.428176 0.732023,75.747959 0.732023,75.747959"
     id="path1359"
     sodipodi:nodetypes="csc" /><path
     style="font-variation-settings:normal;opacity:1;fill:none;fill-opacity:1;stroke:#005c94;stroke-width:3.5;stroke-linecap:butt;stroke-linejoin:round;stroke-miterlimit:4;stroke-dasharray:none;stroke-dashoffset:0;stroke-opacity:1;stop-color:#000000;stop-opacity:1"
     d="m 63.912363,15.674701 c 0,0 -2.833524,45.149148 -2.196096,57.712718 0.732029,14.428191 2.196096,77.912201 2.196096,77.912201"
     id="path1373"
     sodipodi:nodetypes="csc" /><path
     style="font-variation-settings:normal;opacity:1;fill:none;fill-opacity:1;stroke:#005c94;stroke-width:3.5;stroke-linecap:butt;stroke-linejoin:round;stroke-miterlimit:4;stroke-dasharray:none;stroke-dashoffset:0;stroke-opacity:1;stop-color:#000000;stop-opacity:1"
     d="m 28.659581,16.501405 c 1.34394,-1.277793 2.688367,-2.556049 4.333608,-3.006654 1.645242,-0.450605 3.587663,-0.07368 4.568462,1.867837 0.980799,1.941513 0.998336,5.442576 -1.062802,7.94135 -2.061138,2.498775 -6.198784,3.991563 -9.420904,2.578242 C 23.855825,24.46886 21.550729,20.148224 21.43083,15.7756 21.310931,11.402976 23.376932,6.9792048 29.52701,5.0981025 35.677089,3.2170002 45.910687,3.8786477 56.460923,3.9563412 c 10.550236,0.077693 21.414693,-0.4284316 27.340284,1.6586874 5.925591,2.0871189 6.910525,6.7657614 6.427769,11.0814464 -0.482757,4.315686 -2.432906,8.268031 -5.862963,9.712273 -3.430057,1.444243 -8.340531,0.38031 -10.550821,-2.197639 -2.210289,-2.577949 -1.719231,-6.670097 -0.163824,-8.880238 1.555407,-2.210141 4.174381,-2.537515 5.93399,-1.923222 1.759609,0.614292 2.659884,2.169311 3.559707,3.723547"
     id="path1496"
     inkscape:path-effect="#path-effect1498"
     inkscape:original-d="m 28.659581,16.501405 c 1.344611,-1.277088 2.689038,-2.555343 4.033309,-3.834794 1.945438,0.378065 3.887858,0.755002 5.831999,1.131707 0.01822,3.50578 0.03574,7.006843 0.05265,10.51082 -4.13953,1.4944 -8.277177,2.987187 -12.416916,4.479798 -2.304543,-4.320212 -4.609642,-8.640846 -6.915574,-12.962442 2.066712,-4.42313 4.132812,-8.8468551 6.197936,-13.2711741 10.234058,0.6623976 20.467656,1.3240465 30.701094,1.984962 10.867118,-0.5054364 21.731574,-1.0115676 32.59741,-1.5185633 0.985891,4.6803065 1.970765,9.3589614 2.955144,14.0375614 -1.949586,3.953289 -3.899739,7.905632 -5.850696,11.857538 -4.910093,-1.063312 -9.820566,-2.127249 -14.732041,-3.191935 0.491765,-4.091632 0.982827,-8.18378 1.473203,-12.276692 2.61977,-0.326706 5.238745,-0.654076 7.857087,-0.982141 0.901001,1.555764 1.801268,3.110787 2.700879,4.665146"
     sodipodi:nodetypes="ccccccccccccccc" /><path
     style="font-variation-settings:normal;opacity:1;fill:none;fill-opacity:1;stroke:#005c94;stroke-width:3.5;stroke-linecap:butt;stroke-linejoin:round;stroke-miterlimit:4;stroke-dasharray:none;stroke-dashoffset:0;stroke-opacity:1;stop-color:#000000;stop-opacity:1"
     d="m 28.639326,149.07995 c 1.343943,1.27779 2.688367,2.55605 4.333609,3.00665 1.645241,0.45061 3.587664,0.0737 4.568462,-1.86783 0.980799,-1.94151 0.998336,-5.44258 -1.062802,-7.94135 -2.061137,-2.49878 -6.198785,-3.99156 -9.420904,-2.57824 -3.222118,1.41331 -5.527213,5.73395 -5.647113,10.10657 -0.1199,4.37263 1.946103,8.7964 8.09618,10.6775 6.150078,1.8811 16.383676,1.21945 26.933911,1.14176 10.550235,-0.0777 21.414691,0.42844 27.340283,-1.65868 5.925592,-2.08712 6.910525,-6.76577 6.427771,-11.08145 -0.482755,-4.31568 -2.432904,-8.26802 -5.862962,-9.71227 -3.430059,-1.44424 -8.340533,-0.38031 -10.550822,2.19763 -2.210289,2.57795 -1.719231,6.6701 -0.163824,8.88024 1.555407,2.21014 4.174382,2.53751 5.93399,1.92322 1.759608,-0.61429 2.659883,-2.1693 3.559707,-3.72354"
     id="path2452"
     inkscape:path-effect="#path-effect2456"
     inkscape:original-d="m 28.639326,149.07995 c 1.344612,1.27709 2.689038,2.55534 4.03331,3.83479 1.945438,-0.37806 3.887858,-0.755 5.831999,-1.1317 0.01822,-3.50578 0.03574,-7.00685 0.05265,-10.51082 -4.13953,-1.4944 -8.277177,-2.98719 -12.416915,-4.4798 -2.304543,4.32021 -4.609642,8.64084 -6.915574,12.96244 2.066711,4.42313 4.132812,8.84686 6.197935,13.27117 10.234059,-0.66239 20.467657,-1.32404 30.701093,-1.98496 10.867118,0.50544 21.731574,1.01157 32.59741,1.51857 0.985891,-4.68031 1.970764,-9.35897 2.955144,-14.03757 -1.949584,-3.95328 -3.899737,-7.90562 -5.850694,-11.85753 -4.910094,1.06331 -9.820566,2.12725 -14.732041,3.19193 0.491765,4.09163 0.982827,8.18378 1.473203,12.27669 2.61977,0.32671 5.238745,0.65408 7.857087,0.98214 0.901001,-1.55576 1.801268,-3.11078 2.700879,-4.66514"
     sodipodi:nodetypes="ccccccccccccccc" /></svg>
